<mxfile host="app.diagrams.net" modified="2024-06-30T07:28:33.366Z" agent="Mozilla/5.0 (Macintosh; Intel Mac OS X 10_15_7) AppleWebKit/537.36 (KHTML, like Gecko) Chrome/126.0.0.0 Safari/537.36" version="24.5.2" etag="rfNuL9Z7W05EYXCThn7U" type="github">
  <diagram name="ページ1" id="kdJedH9bkXQ2L1WsLpHF">
    <mxGraphModel>
      <root>
        <mxCell id="0" />
        <mxCell id="1" parent="0" />
      </root>
    </mxGraphModel>
  </diagram>
</mxfile>
